<?xml version="1.0" encoding="UTF-8"?>
<!DOCTYPE svg PUBLIC "-//W3C//DTD SVG 1.1//EN" "http://www.w3.org/Graphics/SVG/1.1/DTD/svg11.dtd">
<!-- Creator: CorelDRAW 2020 (64-Bit) -->
<svg xmlns="http://www.w3.org/2000/svg" xml:space="preserve" width="84.6666mm" height="84.6666mm" version="1.1" style="shape-rendering:geometricPrecision; text-rendering:geometricPrecision; image-rendering:optimizeQuality; fill-rule:evenodd; clip-rule:evenodd"
viewBox="0 0 8466.66 8466.66"
 xmlns:xlink="http://www.w3.org/1999/xlink"
 xmlns:xodm="http://www.corel.com/coreldraw/odm/2003">
 <defs>
  <style type="text/css">
   <![CDATA[
    .str0 {stroke:white;stroke-width:20;stroke-miterlimit:22.9256}
    .fil0 {fill:white}
   ]]>
  </style>
 </defs>
 <g id="Layer_x0020_1">
  <metadata id="CorelCorpID_0Corel-Layer"/>
  <path class="fil0 str0" d="M6184.24 6175.52c155.25,0 281.1,125.85 281.1,281.11 0,155.25 -125.85,281.1 -281.1,281.1 -155.26,0 -281.1,-125.85 -281.1,-281.1 0,-155.26 125.84,-281.11 281.1,-281.11zm843.3 -812.69l1439.13 0 0 562.21 -1439.13 0 -3639 0 -150.64 -562.21 3789.64 0zm-4965.18 0l291.02 0 -828.54 -3092.12 -1374.2 0 -150.64 -562.2 1967.71 0 225.95 843.31 4833.88 0 0 2248.81 -3940.28 0 -150.65 -562.2 3528.73 0 0 -1124.41 -4121.04 0 753.22 2811.02 -237.73 0 -355.76 0 -291.03 0 -461.4 0 -621.77 0 -150.64 -562.21 772.41 0 310.76 0zm-150.64 -562.2l-1083.17 0 -150.65 -562.2 1083.17 0 150.65 562.2zm2320.13 1395.3c155.25,0 281.1,125.85 281.1,281.1 0,155.26 -125.85,281.11 -281.1,281.11 -155.26,0 -281.11,-125.85 -281.11,-281.11 0,-155.25 125.85,-281.1 281.11,-281.1z"/>
 </g>
</svg>
